# xmcd CD database file
#
# Track frame offsets:
#	150
#	19495
#	48272
#	64760
#	83505
#	111605
#	124900
#	137585
#	154075
#	178982
#	198562
#	219072
#	229000
#	240600
#	254012
#
# Disc length: 3564 seconds
#
# Revision: 0
# Processed by: cddbd v1.5.1PL0 Copyright (c) Steve Scherf et al.
# Submitted via: CDex 1.60beta1
#
DISCID=d70dea0f
DTITLE=UNC Axidentals and Sus 4 - Hot X
DYEAR=1900
DGENRE=Jazz
TTITLE0=Yellow Fever
TTITLE1=Wildlife
TTITLE2=Honeysuckle Rose
TTITLE3=Summertime
TTITLE4=Take 5
TTITLE5=Dancin' in the Dark
TTITLE6=Aura Lee
TTITLE7=Hello
TTITLE8=Find 100 Ways
TTITLE9=Helen's Song
TTITLE10=Change
TTITLE11=Playrooms
TTITLE12=Bye Bye Blackbird
TTITLE13=Send in the Clowns
TTITLE14=All of You
EXTD=
EXTT0=
EXTT1=
EXTT2=
EXTT3=
EXTT4=
EXTT5=
EXTT6=
EXTT7=
EXTT8=
EXTT9=
EXTT10=
EXTT11=
EXTT12=
EXTT13=
EXTT14=
PLAYORDER=
